<svg width="180" height="68" viewBox="0 0 180 68" fill="none" xmlns="http://www.w3.org/2000/svg">
<path d="M178.785 33.743C178.785 37.9856 176.485 42.1485 172.059 46.0548C167.634 49.9597 161.174 53.522 153.106 56.5338C136.977 62.5547 114.628 66.299 89.8923 66.299C65.157 66.299 42.8078 62.5547 26.6786 56.5338C18.6102 53.522 12.1505 49.9597 7.72589 46.0548C3.29986 42.1485 1 37.9856 1 33.743C1 29.5004 3.29986 25.3375 7.72589 21.4313C12.1505 17.5263 18.6102 13.964 26.6786 10.9522C42.8078 4.93131 65.157 1.18701 89.8923 1.18701C114.628 1.18701 136.977 4.93131 153.106 10.9522C161.174 13.964 167.634 17.5263 172.059 21.4313C176.485 25.3375 178.785 29.5004 178.785 33.743Z" stroke="#0CA941" stroke-width="2"/>
<path d="M41.8097 39.9767C44.4377 39.9767 46.2737 38.5727 46.2737 36.2687C46.2737 33.7667 44.1677 33.1187 42.0797 32.4527C40.2437 31.8767 39.5417 31.4627 39.5417 30.4907C39.5417 29.5367 40.3157 28.9247 41.5217 28.9247C42.9257 28.9247 43.7177 29.6807 44.1677 30.6887L45.9137 29.6807C45.1217 28.0067 43.5917 26.9087 41.5217 26.9087C39.3977 26.9087 37.4717 28.2227 37.4717 30.5447C37.4717 32.9207 39.3797 33.6407 41.3417 34.2347C43.2137 34.8107 44.2037 35.1887 44.2037 36.3047C44.2037 37.2227 43.5017 37.9607 41.8637 37.9607C40.1537 37.9607 39.1817 37.1147 38.7317 35.8367L36.9497 36.8807C37.6157 38.7527 39.3257 39.9767 41.8097 39.9767ZM52.6827 30.5087C51.4587 30.5087 50.4867 30.9587 49.8927 31.8947V27.1427H47.9487V39.7427H49.8927V34.9187C49.8927 33.0827 50.9007 32.3267 52.1787 32.3267C53.4027 32.3267 54.1947 33.0467 54.1947 34.4147V39.7427H56.1387V34.2167C56.1387 31.8767 54.6987 30.5087 52.6827 30.5087ZM62.4799 39.9767C65.1259 39.9767 67.2319 37.9067 67.2319 35.2427C67.2319 32.5607 65.1259 30.5087 62.4799 30.5087C59.8519 30.5087 57.7279 32.5607 57.7279 35.2427C57.7279 37.9067 59.8519 39.9767 62.4799 39.9767ZM62.4799 38.0867C60.8959 38.0867 59.6719 36.8807 59.6719 35.2427C59.6719 33.6047 60.8959 32.3987 62.4799 32.3987C64.0639 32.3987 65.2879 33.6047 65.2879 35.2427C65.2879 36.8807 64.0639 38.0867 62.4799 38.0867ZM74.0837 30.5087C72.6797 30.5087 71.6177 31.0847 70.9337 32.0387V30.7427H68.9897V43.3427H70.9337V38.4647C71.6177 39.4007 72.6797 39.9767 74.0837 39.9767C76.5317 39.9767 78.5657 37.9247 78.5657 35.2427C78.5657 32.5787 76.5317 30.5087 74.0837 30.5087ZM73.7777 38.1227C72.1577 38.1227 70.9337 36.9167 70.9337 35.2427C70.9337 33.5687 72.1577 32.3627 73.7777 32.3627C75.3977 32.3627 76.6217 33.5687 76.6217 35.2427C76.6217 36.9167 75.3977 38.1227 73.7777 38.1227ZM92.5136 27.1427V35.6927L86.5736 27.1427H84.9536V39.7427H87.0236V31.1927L92.9636 39.7427H94.5836V27.1427H92.5136ZM101.222 39.9767C103.868 39.9767 105.974 37.9067 105.974 35.2427C105.974 32.5607 103.868 30.5087 101.222 30.5087C98.5941 30.5087 96.4701 32.5607 96.4701 35.2427C96.4701 37.9067 98.5941 39.9767 101.222 39.9767ZM101.222 38.0867C99.6381 38.0867 98.4141 36.8807 98.4141 35.2427C98.4141 33.6047 99.6381 32.3987 101.222 32.3987C102.806 32.3987 104.03 33.6047 104.03 35.2427C104.03 36.8807 102.806 38.0867 101.222 38.0867ZM117.748 30.7427L115.984 36.9527L114.112 30.7427H112.258L110.368 36.9527L108.622 30.7427H106.57L109.396 39.7427H111.304L113.194 33.6767L115.066 39.7427H116.974L119.8 30.7427H117.748Z" fill="#374A3D"/>
<path d="M139.32 39.7426C139.428 39.743 139.536 39.7191 139.633 39.6726C139.731 39.6261 139.818 39.5583 139.886 39.474L143.393 35.1182C143.499 34.9883 143.558 34.8254 143.558 34.6572C143.558 34.4891 143.499 34.3261 143.393 34.1962L139.763 29.8404C139.64 29.6921 139.462 29.5989 139.27 29.5812C139.079 29.5635 138.887 29.6228 138.739 29.746C138.591 29.8692 138.498 30.0463 138.48 30.2383C138.462 30.4302 138.522 30.6214 138.645 30.7696L141.89 34.6608L138.754 38.552C138.665 38.6586 138.608 38.7884 138.591 38.926C138.574 39.0636 138.596 39.2033 138.656 39.3285C138.715 39.4538 138.81 39.5593 138.927 39.6327C139.045 39.7061 139.181 39.7443 139.32 39.7426Z" fill="#10AA42"/>
<path d="M133.059 38.714C133.146 38.7143 133.231 38.6952 133.309 38.6582C133.387 38.6211 133.456 38.567 133.511 38.4998L136.307 35.0261C136.392 34.9225 136.439 34.7925 136.439 34.6584C136.439 34.5243 136.392 34.3944 136.307 34.2908L133.412 30.8171C133.314 30.6988 133.173 30.6245 133.02 30.6104C132.867 30.5962 132.714 30.6435 132.596 30.7418C132.478 30.8401 132.403 30.9813 132.389 31.1344C132.375 31.2875 132.423 31.4399 132.521 31.5581L135.109 34.6613L132.608 37.7646C132.537 37.8495 132.492 37.953 132.478 38.0628C132.464 38.1725 132.482 38.2839 132.53 38.3838C132.577 38.4837 132.652 38.5679 132.746 38.6264C132.84 38.6849 132.949 38.7153 133.059 38.714Z" fill="#10AA42"/>
<path d="M126.995 37.6734C127.06 37.6736 127.123 37.6595 127.181 37.6319C127.239 37.6044 127.29 37.5641 127.331 37.5142L129.409 34.9324C129.473 34.8554 129.507 34.7588 129.507 34.6592C129.507 34.5595 129.473 34.4629 129.409 34.3859L127.258 31.8041C127.185 31.7163 127.08 31.661 126.966 31.6505C126.852 31.64 126.739 31.6752 126.651 31.7482C126.563 31.8212 126.508 31.9262 126.497 32.04C126.487 32.1537 126.522 32.267 126.595 32.3549L128.519 34.6613L126.66 36.9677C126.607 37.0309 126.574 37.1078 126.563 37.1894C126.553 37.2709 126.566 37.3537 126.602 37.428C126.637 37.5022 126.693 37.5648 126.763 37.6083C126.832 37.6518 126.913 37.6744 126.995 37.6734Z" fill="#10AA42"/>
</svg>
