<svg width="180" height="68" viewBox="0 0 180 68" fill="none" xmlns="http://www.w3.org/2000/svg">
<path id="Ellipse 35" d="M178.866 34.326C178.866 38.5686 176.566 42.7315 172.14 46.6378C167.716 50.5427 161.256 54.105 153.188 57.1168C137.058 63.1377 114.709 66.882 89.9739 66.882C65.2385 66.882 42.8893 63.1377 26.7601 57.1168C18.6918 54.105 12.232 50.5427 7.80744 46.6378C3.3814 42.7315 1.08154 38.5686 1.08154 34.326C1.08154 30.0834 3.3814 25.9205 7.80744 22.0143C12.232 18.1093 18.6918 14.547 26.7601 11.5352C42.8893 5.51432 65.2385 1.77002 89.9739 1.77002C114.709 1.77002 137.058 5.51432 153.188 11.5352C161.256 14.547 167.716 18.1093 172.14 22.0143C176.566 25.9205 178.866 30.0834 178.866 34.326Z" stroke="#0CA941" stroke-width="2"/>
</svg>
