<svg width="18" height="11" viewBox="0 0 18 11" fill="none" xmlns="http://www.w3.org/2000/svg">
<g id="Group 33553">
<path id="Vector" d="M12.9015 10.3256C13.01 10.326 13.1171 10.3021 13.2151 10.2556C13.3131 10.2091 13.3994 10.1413 13.4678 10.057L16.9742 5.7012C17.081 5.5713 17.1393 5.40837 17.1393 5.24021C17.1393 5.07206 17.081 4.90912 16.9742 4.77922L13.3443 0.423392C13.2211 0.275136 13.044 0.181904 12.8521 0.164205C12.6601 0.146506 12.469 0.20579 12.3207 0.329015C12.1725 0.452241 12.0792 0.629313 12.0615 0.821279C12.0438 1.01325 12.1031 1.20438 12.2263 1.35264L15.4714 5.24384L12.3352 9.13505C12.2465 9.24161 12.1901 9.37137 12.1727 9.50898C12.1554 9.64659 12.1778 9.78628 12.2374 9.91153C12.297 10.0368 12.3912 10.1423 12.5089 10.2157C12.6266 10.2891 12.7628 10.3273 12.9015 10.3256Z" fill="#10AA42"/>
<path id="Vector_2" d="M6.64083 9.29699C6.72733 9.29729 6.81279 9.2782 6.89093 9.24113C6.96908 9.20406 7.03793 9.14995 7.09242 9.08278L9.88879 5.60903C9.97394 5.50544 10.0205 5.37549 10.0205 5.24139C10.0205 5.10729 9.97394 4.97735 9.88879 4.87375L6.994 1.40001C6.89573 1.28177 6.75451 1.20742 6.60142 1.19331C6.44833 1.17919 6.2959 1.22647 6.17767 1.32474C6.05943 1.42301 5.98508 1.56423 5.97097 1.71732C5.95685 1.87041 6.00413 2.02284 6.1024 2.14107L8.69034 5.24429L6.18925 8.3475C6.11845 8.43248 6.07348 8.53597 6.05965 8.64571C6.04583 8.75545 6.06373 8.86685 6.11123 8.96674C6.15874 9.06663 6.23387 9.15081 6.32772 9.20934C6.42158 9.26787 6.53023 9.29828 6.64083 9.29699Z" fill="#10AA42"/>
<path id="Vector_3" d="M0.576887 8.25643C0.641172 8.25665 0.704689 8.24246 0.76277 8.21491C0.820852 8.18736 0.872022 8.14715 0.912522 8.09722L2.99087 5.51542C3.05416 5.43843 3.08876 5.34185 3.08876 5.24218C3.08876 5.14251 3.05416 5.04593 2.99087 4.96894L0.83937 2.38714C0.766332 2.29926 0.661377 2.244 0.547594 2.23351C0.433811 2.22302 0.320522 2.25816 0.232647 2.3312C0.144773 2.40424 0.0895116 2.50919 0.079021 2.62297C0.0685303 2.73676 0.103669 2.85005 0.176708 2.93792L2.10015 5.24433L0.241253 7.55074C0.188635 7.6139 0.15521 7.69081 0.144935 7.77238C0.13466 7.85394 0.147963 7.93674 0.183272 8.01098C0.21858 8.08522 0.274416 8.14779 0.344172 8.19129C0.413928 8.23479 0.494685 8.25739 0.576887 8.25643Z" fill="#10AA42"/>
</g>
</svg>
