<svg width="19" height="19" viewBox="0 0 19 19" fill="none" xmlns="http://www.w3.org/2000/svg">
<path d="M8.42474 1.35356C8.72409 0.432254 10.0275 0.432255 10.3269 1.35357L11.8059 5.90574C11.9398 6.31776 12.3238 6.59672 12.757 6.59672H17.5434C18.5122 6.59672 18.9149 7.83634 18.1312 8.40574L14.2589 11.2191C13.9084 11.4738 13.7618 11.9252 13.8956 12.3372L15.3747 16.8894C15.6741 17.8107 14.6196 18.5768 13.8359 18.0074L9.96358 15.194C9.6131 14.9393 9.1385 14.9393 8.78801 15.194L4.9157 18.0074C4.13199 18.5768 3.07751 17.8107 3.37686 16.8894L4.85595 12.3372C4.98982 11.9252 4.84317 11.4738 4.49268 11.2191L0.620366 8.40574C-0.163348 7.83634 0.239428 6.59672 1.20815 6.59672H5.99459C6.42782 6.59672 6.81178 6.31776 6.94565 5.90574L8.42474 1.35356Z" fill="#FFD700"/>
</svg>
